<svg xmlns="http://www.w3.org/2000/svg" xmlns:xlink="http://www.w3.org/1999/xlink" width="219.9" height="39.209" viewBox="0 0 219.9 39.209">
  <defs>
    <linearGradient id="linear-gradient" y1="0.5" x2="1" y2="0.5" gradientUnits="objectBoundingBox">
      <stop offset="0" stop-color="#3b0b6c"/>
      <stop offset="0.999" stop-color="#6a1fe2"/>
    </linearGradient>
    <linearGradient id="linear-gradient-2" y1="0.5" x2="1" y2="0.5" gradientUnits="objectBoundingBox">
      <stop offset="0" stop-color="#3b0ba7"/>
      <stop offset="0.999" stop-color="#6a1fe2"/>
    </linearGradient>
    <linearGradient id="linear-gradient-3" x1="-12.658" y1="-10.484" x2="-11.167" y2="-10.484" gradientUnits="objectBoundingBox">
      <stop offset="0" stop-color="#e78500"/>
      <stop offset="0.999" stop-color="#ffd300"/>
    </linearGradient>
    <linearGradient id="linear-gradient-4" y1="0.5" x2="1" y2="0.5" gradientUnits="objectBoundingBox">
      <stop offset="0" stop-color="#3b0ba7"/>
      <stop offset="0.999" stop-color="#6a6fe2"/>
    </linearGradient>
    <linearGradient id="linear-gradient-5" y1="0.5" x2="1" y2="0.5" gradientUnits="objectBoundingBox">
      <stop offset="0" stop-color="#ffb600"/>
      <stop offset="0.999" stop-color="#ffd300"/>
    </linearGradient>
  </defs>
  <g id="Group_480" data-name="Group 480" transform="translate(-1081.95 -1272.086)">
    <path id="Path_22111" data-name="Path 22111" d="M23.436-1.008,15.8-24.444A1.01,1.01,0,0,0,14.76-25.2H9a1.01,1.01,0,0,0-1.044.756L.324-1.008C.108-.36.432,0,1.08,0H5.508A.938.938,0,0,0,6.516-.756l.947-3.2H16.3l.947,3.2A.938.938,0,0,0,18.252,0H22.68C23.328,0,23.652-.36,23.436-1.008ZM9.06-9.36l2.82-9.54L14.7-9.36ZM32.76.5c4.464,0,8.64-2.52,8.64-8.064V-24.3a.816.816,0,0,0-.9-.9H36.54a.816.816,0,0,0-.9.9V-7.56c0,1.548-.9,2.448-2.88,2.448-1.692,0-2.592-.648-2.808-2.268-.108-.576-.4-.9-.936-.9h-4a.787.787,0,0,0-.864.936C24.552-1.764,28.512.5,32.76.5ZM63.828-1.08,57.1-12.917l6.365-11.2c.36-.648.072-1.08-.612-1.08H58.248a1.155,1.155,0,0,0-1.08.612L53.82-18.7l-3.348-5.893a1.155,1.155,0,0,0-1.08-.612H44.784c-.684,0-.972.432-.612,1.08l6.365,11.2L43.812-1.08c-.36.648-.072,1.08.612,1.08h4.608a1.155,1.155,0,0,0,1.08-.612L53.82-7.138,57.528-.612A1.155,1.155,0,0,0,58.608,0h4.608C63.9,0,64.188-.432,63.828-1.08ZM89.46-5.544H81.72V-24.3a.816.816,0,0,0-.9-.9H76.86a.816.816,0,0,0-.9.9V-.9a.816.816,0,0,0,.9.9h12.6a.816.816,0,0,0,.9-.9V-4.644A.816.816,0,0,0,89.46-5.544ZM100.332-18.5c-3.672,0-6.984,1.98-7.452,5.868a.812.812,0,0,0,.9.936h3.528c.54,0,.72-.288.936-.792a2.114,2.114,0,0,1,2.088-1.044c1.512,0,2.232.792,2.232,2.556v1.625a7.317,7.317,0,0,0-4.644-1.373c-3.168,0-5.94,1.872-5.94,5.616S94.752.5,97.92.5a5.692,5.692,0,0,0,4.644-1.918V-.9a.816.816,0,0,0,.9.9h3.456a.816.816,0,0,0,.9-.9V-11.34C107.82-16.2,104.292-18.5,100.332-18.5Zm-.5,15.192c-1.656,0-2.448-.756-2.448-1.8s.792-1.8,2.448-1.8c1.764,0,2.736.684,2.736,1.8C102.564-4.068,101.592-3.312,99.828-3.312ZM122.076-18.5a6.768,6.768,0,0,0-5.364,2.185V-24.3a.816.816,0,0,0-.9-.9h-3.6a.816.816,0,0,0-.9.9V-.9a.816.816,0,0,0,.9.9h3.6a.816.816,0,0,0,.9-.9v-.781A6.768,6.768,0,0,0,122.076.5c4.716,0,8.6-4.14,8.6-9.5S126.792-18.5,122.076-18.5ZM121-4.608A4.111,4.111,0,0,1,116.712-9,4.111,4.111,0,0,1,121-13.392,4.111,4.111,0,0,1,125.28-9,4.111,4.111,0,0,1,121-4.608ZM138.42-12.6c0-.72.576-1.224,1.908-1.224a1.729,1.729,0,0,1,1.692.936c.252.5.432.792.972.792h3.528a.774.774,0,0,0,.864-.936c-.432-3.816-3.708-5.472-7.056-5.472-3.78,0-7.308,1.836-7.308,5.9,0,6.984,9.4,4.608,9.4,7.2,0,.72-.576,1.224-2.088,1.224a2.057,2.057,0,0,1-2.052-.972c-.252-.468-.432-.756-.972-.756h-3.528a.774.774,0,0,0-.864.936C133.344-1.152,136.656.5,140.328.5c3.96,0,7.488-1.764,7.488-5.9C147.816-12.42,138.42-9.936,138.42-12.6ZM151.776,0h3.96a.816.816,0,0,0,.9-.9V-4.86a.816.816,0,0,0-.9-.9h-3.96a.816.816,0,0,0-.9.9V-.9A.816.816,0,0,0,151.776,0Z" transform="translate(1145.214 1306.086)" fill="#0b013a"/>
    <g id="Group_459" data-name="Group 459" transform="translate(18)">
      <path id="Path_21895" data-name="Path 21895" d="M1102.161,1270.062s2.517,5.838,5.28,12.194c-.723,1.7-1.482,3.437-2.257,5.136-3.536-6.65-7.736-11.441-12.312-4.307C1092.872,1283.084,1095.271,1267.676,1102.161,1270.062Z" transform="translate(-12.671 5.227)" fill="url(#linear-gradient)"/>
      <path id="Path_21896" data-name="Path 21896" d="M1144.317,1340.375c-.789-.417-3.191-3.381-4.078-4.689.831-1.048,1.9-2.329,2.681-3.485.225.493,1.708,3.243,1.847,3.538a8.721,8.721,0,0,0,1.4,2.2A1.556,1.556,0,0,1,1144.317,1340.375Z" transform="translate(-40.796 -31.819)" fill="url(#linear-gradient-2)"/>
      <path id="Path_21897" data-name="Path 21897" d="M1080.468,1288a5.315,5.315,0,0,1-3.052,2.629c3.593,8.121,9.986,22.942,9.986,22.942,6.888,2.384,9.289-13.023,9.289-13.023C1090.28,1310.538,1084.608,1297.138,1080.468,1288Z" transform="translate(-3.493 -5.573)" fill="url(#linear-gradient-3)"/>
      <path id="Path_21898" data-name="Path 21898" d="M1080.286,1270.114s-2.7-7.3-8.432,3.374a226.232,226.232,0,0,0-10.067,22.965,4.207,4.207,0,0,1-6.617,1.725h0a6.378,6.378,0,0,1-1.793-7.407c2.618-6.146,7.847-17.21,13.925-23.5C1074.329,1259.995,1077.112,1261.26,1080.286,1270.114Z" transform="translate(11.084 9.541)" fill="url(#linear-gradient-4)"/>
      <path id="Path_21899" data-name="Path 21899" d="M1097.5,1297.991s2.7,7.3,8.432-3.374A226.249,226.249,0,0,0,1116,1271.653a4.208,4.208,0,0,1,6.617-1.725h0a6.379,6.379,0,0,1,1.793,7.407c-2.618,6.146-7.848,17.21-13.925,23.5C1103.458,1308.111,1100.675,1306.846,1097.5,1297.991Z" transform="translate(-15.42 5.736)" fill="url(#linear-gradient-5)"/>
    </g>
  </g>
</svg>
