<svg id="Group_457" data-name="Group 457" xmlns="http://www.w3.org/2000/svg" width="136.035" height="220.568" viewBox="0 0 136.035 220.568">
  <path id="Path_21986" data-name="Path 21986" d="M566.744,323.11c20.263-10.77,25.408,12.663,17.528,32.067-6.409,15.782-34.348,61.9-45.687,92.5h-10.96C527.16,405.277,543.149,335.649,566.744,323.11Z" transform="translate(-451.756 -227.108)" fill="#36457c" fill-rule="evenodd"/>
  <g id="Group_455" data-name="Group 455" transform="translate(37.672)">
    <path id="Path_21987" data-name="Path 21987" d="M522.248,230.316c-23.235-20.919-37.762,8.361-33.745,36.61S524.43,394.78,518.685,429.691c-2.228,13.533.607,12.7,5.044,3.93C545.857,389.87,554.231,259.113,522.248,230.316Z" transform="translate(-487.837 -223.22)" fill="#a477e7" fill-rule="evenodd"/>
    <path id="Path_21988" data-name="Path 21988" d="M518.923,439.9c.5,1.3,1.6.654,3.082-1.5,24.215-80.664-13.508-201.185-13.627-201.571a1.259,1.259,0,0,0-2.4.744C506.093,237.957,544.33,360.121,518.923,439.9Z" transform="translate(-488.56 -223.729)" fill="#8257c3" fill-rule="evenodd"/>
  </g>
  <g id="Group_456" data-name="Group 456" transform="translate(0 71.947)">
    <path id="Path_21989" data-name="Path 21989" d="M469.93,300.336c-22.514-9.8-26.048,15.628-16.025,35.669,9.68,19.357,55.306,81.817,62.385,110.782h5.839C525.211,405.85,499.741,313.312,469.93,300.336Z" transform="translate(-448.594 -298.166)" fill="#fcc100" fill-rule="evenodd"/>
    <path id="Path_21990" data-name="Path 21990" d="M520.742,447.2c-6.275-64.323-59.588-138.1-59.766-138.349A.988.988,0,1,0,459.37,310c.176.247,53.143,73.546,59.406,137.2Z" transform="translate(-449.018 -298.577)" fill="#f18a00" fill-rule="evenodd"/>
  </g>
  <path id="Path_21991" data-name="Path 21991" d="M491.928,434.683h65.838a3.592,3.592,0,0,1,3.581,3.581V452.25h-73V438.264A3.591,3.591,0,0,1,491.928,434.683Z" transform="translate(-450.185 -231.682)" fill="#8b472d" fill-rule="evenodd"/>
  <path id="Path_21992" data-name="Path 21992" d="M491.2,434.683h52.55c1.572,0,2.858,1.612,2.858,3.581V452.25H488.348V438.264C488.348,436.295,489.633,434.683,491.2,434.683Z" transform="translate(-450.185 -231.682)" fill="#b56b41" fill-rule="evenodd"/>
</svg>
